# xmcd CD database file
#
# Track frame offsets:
#	150
#	41587
#	69461
#	110935
#	133637
#	168023
#
# Disc length: 2874 seconds
#
# Revision: 0
# Processed by: cddbd v1.5.1PL0 Copyright (c) Steve Scherf et al.
# Submitted via: CDex 1.51
#
DISCID=4f0b3806
DTITLE=Keith Jarrett - My Song
DYEAR=1900
DGENRE=Jazz
TTITLE0=Questar
TTITLE1=My Song
TTITLE2=Tabarka
TTITLE3=Country
TTITLE4=Mandala
TTITLE5=Journey Home
EXTD=
EXTT0=
EXTT1=
EXTT2=
EXTT3=
EXTT4=
EXTT5=
PLAYORDER=
